# xmcd
#
# Track frame offsets: 
#        183
#        11400
#        29565
#        42195
#        51298
#        61085
#        72600
#        86360
#        102115
#        111253
#        120753
#        130915
#
# Disc length: 1911 seconds
#
# Revision: 2
# Processed by: cddbd v1.5.2PL0 Copyright (c) Steve Scherf et al.
# Submitted via: ExactAudioCopy v1.0b4
#
DISCID=9807750c
DTITLE=Santo and Johnny - I Grandi Successi Originali CD1
DYEAR=2009
DGENRE=Pop
TTITLE0=Maria Elena
TTITLE1=Forever And Ever
TTITLE2=Strangers In The Night
TTITLE3=Blue Moon
TTITLE4=And I Love Her
TTITLE5=Days Of Wine And Roses
TTITLE6=Djamballa
TTITLE7=Dolannes Melody
TTITLE8=Dream
TTITLE9=Michelle
TTITLE10=Ebb Tide
TTITLE11=Airport Love Theme
EXTD=
EXTT0=
EXTT1=
EXTT2=
EXTT3=
EXTT4=
EXTT5=
EXTT6=
EXTT7=
EXTT8=
EXTT9=
EXTT10=
EXTT11=
PLAYORDER=
